<?xml version="1.0" encoding="utf-8"?>
<!-- Generator: Adobe Illustrator 26.1.0, SVG Export Plug-In . SVG Version: 6.00 Build 0)  -->
<svg version="1.1" id="Слой_1" xmlns="http://www.w3.org/2000/svg" xmlns:xlink="http://www.w3.org/1999/xlink" x="0px" y="0px"
	 viewBox="0 0 11 9" style="enable-background:new 0 0 11 9;" xml:space="preserve">
<style type="text/css">
	.st0{fill:#FFFFFF;}
</style>
<g>
	<path class="st0" d="M1.9,4L1.9,4c0.1,0,0.2,0,0.2,0.1c0.1,0,0.1,0.1,0.2,0.1L1.9,4z M1.9,4H1.1C0.9,4,0.8,4.3,0.9,4.4l0,0l3.2,4.1
		l0,0c0.2,0.3,0.6,0.3,0.8,0l0,0l5.7-7.3c0,0,0,0,0,0c0.1-0.2,0-0.4-0.2-0.4H9.6c-0.2,0-0.3,0.1-0.4,0.2c0,0,0,0,0,0L4.5,7 M1.9,4
		l2.6,3 M4.5,7L2.3,4.2L4.5,7z"/>
	<path class="st0" d="M4.5,8.8C4.5,8.8,4.5,8.8,4.5,8.8C4.3,8.8,4.1,8.8,4,8.6L0.8,4.5c-0.1-0.1-0.1-0.3,0-0.4
		C0.8,4,0.9,3.9,1.1,3.9h0.8c0.1,0,0.2,0,0.3,0.1c0.1,0,0.2,0.1,0.2,0.2l2.1,2.6L9.1,1c0.1-0.2,0.3-0.3,0.5-0.3h0.8
		c0.2,0,0.3,0.1,0.4,0.2c0.1,0.1,0.1,0.3,0,0.4v0l0,0L5.1,8.6C4.9,8.8,4.7,8.8,4.5,8.8z M1.1,4.2C1,4.2,1,4.2,1.1,4.2
		C1,4.3,1,4.3,1,4.3l3.2,4.1c0.1,0.1,0.2,0.1,0.3,0.1h0c0.1,0,0.2-0.1,0.3-0.1l5.7-7.3c0,0,0-0.1,0-0.1c0,0,0-0.1-0.1-0.1H9.6
		C9.5,1,9.4,1.1,9.4,1.1l-4.7,6L4.5,7L4.4,7.1L1.8,4.2H1.1z"/>
</g>
</svg>
